<?xml version="1.0" encoding="iso-8859-1"?>
<!-- Uploaded to: SVG Repo, www.svgrepo.com, Generator: SVG Repo Mixer Tools -->
<svg height="800px" width="800px" version="1.1" id="Layer_1" xmlns="http://www.w3.org/2000/svg" xmlns:xlink="http://www.w3.org/1999/xlink" 
	 viewBox="0 0 511.998 511.998" xml:space="preserve">
<polygon style="fill:#FFD6A0;" points="462.879,411.158 307.72,255.999 462.877,100.84 411.158,49.121 256.001,204.28 
	100.842,49.121 49.123,100.842 204.28,255.999 49.123,411.158 100.842,462.877 256.001,307.718 411.158,462.877 "/>
<polygon style="fill:#FFC170;" points="462.879,411.158 307.72,255.999 462.877,100.84 411.158,49.121 256.001,204.28 
	256.001,307.718 411.158,462.877 "/>
<circle style="fill:#78B9EB;" cx="255.999" cy="255.999" r="118.857"/>
<path style="fill:#5A8BB0;" d="M256.001,137.142c65.638,0,118.857,53.217,118.857,118.857c0,65.638-53.219,118.857-118.857,118.857"
	/>
<circle style="fill:#D80027;" cx="73.143" cy="73.143" r="73.143"/>
<path style="fill:#A2001D;" d="M21.423,21.423c28.564-28.564,74.874-28.564,103.438,0c28.566,28.564,28.566,74.874,0,103.438"/>
<circle style="fill:#AED5F3;" cx="73.143" cy="438.856" r="73.143"/>
<path style="fill:#78B9EB;" d="M124.864,387.136c28.564,28.564,28.564,74.874,0,103.438s-74.874,28.564-103.438,0"/>
<circle style="fill:#D80027;" cx="438.856" cy="438.856" r="73.143"/>
<path style="fill:#A2001D;" d="M490.575,490.578c28.564-28.566,28.564-74.874,0-103.44c-28.564-28.564-74.874-28.564-103.438,0.002"
	/>
<circle style="fill:#AED5F3;" cx="438.856" cy="73.143" r="73.143"/>
<path style="fill:#78B9EB;" d="M387.135,124.862c28.566,28.564,74.876,28.564,103.44,0s28.564-74.874,0-103.438"/>
</svg>